<?xml version="1.0" standalone="no"?>
<!DOCTYPE svg PUBLIC "-//W3C//DTD SVG 20010904//EN"
 "http://www.w3.org/TR/2001/REC-SVG-20010904/DTD/svg10.dtd">
<svg version="1.0" xmlns="http://www.w3.org/2000/svg"
 width="196.000000pt" height="196.000000pt" viewBox="0 0 196.000000 196.000000"
 preserveAspectRatio="xMidYMid meet">
<metadata>
Created by potrace 1.11, written by Peter Selinger 2001-2013
</metadata>
<g transform="translate(0.000000,196.000000) scale(0.100000,-0.100000)"
fill="#000000" stroke="none">
<path d="M790 1849 c-82 -10 -97 -13 -197 -41 -46 -12 -83 -25 -83 -28 0 -11
88 -123 104 -132 9 -5 38 -3 73 6 116 30 192 35 304 21 335 -43 603 -354 602
-700 -1 -49 -6 -109 -12 -132 -6 -24 -16 -61 -22 -84 l-10 -40 -31 38 c-36 44
-61 100 -53 114 4 5 7 47 7 92 0 242 -121 438 -337 546 -68 33 -186 58 -258
54 -51 -2 -167 -32 -167 -42 0 -17 93 -121 112 -125 13 -3 57 -7 98 -9 212
-12 381 -197 381 -417 0 -36 -7 -88 -14 -116 -11 -37 -11 -56 -4 -70 6 -10 67
-91 136 -179 68 -88 162 -208 208 -267 108 -139 124 -150 222 -154 42 -2 82 0
90 5 11 7 -6 34 -75 122 -48 63 -107 137 -130 164 -59 71 -63 82 -52 124 6 20
14 41 18 46 13 17 49 157 57 220 68 561 -411 1048 -967 984z"/>
<path d="M305 1633 c-198 -167 -309 -426 -299 -698 10 -257 142 -511 349 -666
68 -50 235 -132 295 -144 3 -1 19 -4 35 -8 67 -16 83 -18 165 -22 151 -6 276
20 424 91 68 32 70 32 100 16 31 -16 187 -25 201 -10 5 5 -482 627 -515 658
-3 3 -86 106 -185 230 -99 124 -187 234 -196 245 -9 11 -79 98 -154 193 -76
94 -141 172 -145 172 -4 0 -38 -26 -75 -57z m222 -393 c468 -580 690 -856 696
-867 14 -22 -121 -84 -218 -99 -225 -35 -443 32 -609 186 -145 135 -220 315
-219 525 0 96 5 122 32 203 38 115 126 259 153 250 4 -2 79 -91 165 -198z"/>
<path d="M355 1232 c-31 -47 -65 -177 -65 -249 0 -316 251 -584 560 -598 71
-3 171 9 197 24 16 9 -46 103 -84 128 -17 11 -57 20 -111 24 -255 20 -419 236
-376 495 6 38 9 76 6 84 -6 15 -92 130 -98 130 -2 0 -15 -17 -29 -38z"/>
</g>
</svg>
